<svg version="1.1" id="Layer_1" xmlns="http://www.w3.org/2000/svg" xmlns:xlink="http://www.w3.org/1999/xlink" x="0px" y="0px"
	 width="100%" viewBox="0 0 742 641" enable-background="new 0 0 742 641" xml:space="preserve">
<path fill="#000000" opacity="1.000000" stroke="none" 
	d="
M743.000000,98.000000 
	C743.000000,279.262146 743.000000,460.524292 743.000000,642.000000 
	C557.977417,642.000000 372.954742,642.000000 187.735214,641.677124 
	C186.693085,640.896790 185.891891,640.312805 184.995972,640.000610 
	C169.711380,634.673218 159.389252,624.375977 153.914932,609.158142 
	C149.853867,597.869019 148.773880,586.163391 148.777878,574.270996 
	C148.800613,506.460693 148.785965,438.650391 148.798782,370.840088 
	C148.799042,369.454590 148.977295,368.069153 149.093002,366.385376 
	C151.940033,367.184235 154.322678,367.863892 156.711441,368.521362 
	C200.556183,380.589081 244.820816,384.869263 289.474823,373.821625 
	C341.707581,360.898926 379.070465,330.486389 396.819427,278.659027 
	C408.517456,244.500595 409.294128,209.455048 403.036377,174.097687 
	C392.663544,115.489319 360.393829,74.907021 304.218109,54.025902 
	C269.437561,41.097610 233.162796,36.284595 196.376450,36.052502 
	C133.071701,35.653107 69.760887,36.219410 6.452575,36.358967 
	C4.635322,36.362976 2.817537,36.125095 1.000000,36.000000 
	C1.000000,24.347162 1.000000,12.694325 1.000000,1.000000 
	C110.689308,1.000000 220.378616,1.000000 330.273376,1.347908 
	C331.190857,2.063820 331.881622,2.482264 332.618073,2.792142 
	C341.461548,6.513238 350.757263,9.425369 359.066620,14.094098 
	C375.865051,23.532558 385.444092,39.364380 393.970856,56.021263 
	C444.650116,155.022308 495.465546,253.953644 546.137573,352.958405 
	C547.433105,355.489655 548.206726,358.593262 548.214539,361.432709 
	C548.340759,407.593781 548.303406,453.755280 548.303650,499.916687 
	C548.303711,508.415527 548.747864,516.943054 548.197754,525.406006 
	C547.500000,536.139771 547.192993,547.121338 544.599731,557.465027 
	C538.508301,581.761475 518.087097,595.608643 496.326996,594.006348 
	C490.919373,593.608215 485.457520,593.946899 480.032837,593.946899 
	C480.032837,599.798401 480.032837,605.072021 480.032837,610.584717 
	C549.302612,610.584717 618.364929,610.584717 687.573853,610.584717 
	C687.573853,604.959717 687.573853,599.578369 687.573853,593.946899 
	C681.449463,593.946899 675.599854,593.536194 669.825623,594.021729 
	C650.254089,595.667358 631.238770,581.376953 624.573303,562.805603 
	C620.342834,551.018799 618.997498,538.881653 618.999451,526.485901 
	C619.009033,466.826019 618.972839,407.166107 619.089966,347.506470 
	C619.095886,344.499146 619.819275,341.217010 621.150146,338.528961 
	C653.480347,273.227997 685.935181,207.988708 718.376831,142.742905 
	C725.471069,128.475037 732.585693,114.217186 739.741150,99.979965 
	C740.355225,98.758087 740.378113,96.104591 743.000000,98.000000 
z"/>
<path fill="#ffffff" opacity="1.000000" stroke="none" 
	d="
M1.000000,36.467606 
	C2.817537,36.125095 4.635322,36.362976 6.452575,36.358967 
	C69.760887,36.219410 133.071701,35.653107 196.376450,36.052502 
	C233.162796,36.284595 269.437561,41.097610 304.218109,54.025902 
	C360.393829,74.907021 392.663544,115.489319 403.036377,174.097687 
	C409.294128,209.455048 408.517456,244.500595 396.819427,278.659027 
	C379.070465,330.486389 341.707581,360.898926 289.474823,373.821625 
	C244.820816,384.869263 200.556183,380.589081 156.711441,368.521362 
	C154.322678,367.863892 151.940033,367.184235 149.093002,366.385376 
	C148.977295,368.069153 148.799042,369.454590 148.798782,370.840088 
	C148.785965,438.650391 148.800613,506.460693 148.777878,574.270996 
	C148.773880,586.163391 149.853867,597.869019 153.914932,609.158142 
	C159.389252,624.375977 169.711380,634.673218 184.995972,640.000610 
	C185.891891,640.312805 186.693085,640.896790 187.269180,641.677124 
	C135.979111,642.000000 84.958214,642.000000 33.184563,641.677368 
	C33.267876,640.898865 34.057774,640.304749 34.946896,640.007751 
	C50.141541,634.931641 60.440685,624.840149 66.062592,609.870789 
	C70.408020,598.300232 71.505547,586.239075 71.507217,574.030273 
	C71.527313,426.723694 71.609741,279.416931 71.366905,132.110764 
	C71.345619,119.196571 70.124214,106.102577 67.744896,93.413757 
	C63.439480,70.453163 50.913136,58.654060 27.847780,54.832203 
	C19.039167,53.372643 9.957326,53.562054 1.000000,53.000000 
	C1.000000,47.645069 1.000000,42.290142 1.000000,36.467606 
M313.865631,185.747543 
	C310.989227,169.313019 306.694824,153.279053 299.928101,137.993713 
	C286.058533,106.663795 263.915131,84.741585 229.563736,77.177422 
	C202.391251,71.194046 175.667801,74.877487 149.168915,81.307236 
	C148.986038,82.129066 148.787170,82.605530 148.787109,83.082024 
	C148.776550,168.073425 148.796097,253.064850 148.716293,338.056183 
	C148.713531,340.998810 150.084229,341.577820 152.446960,342.151642 
	C173.613174,347.291840 194.962967,350.294830 216.802109,348.131653 
	C257.334381,344.116913 286.870819,324.436249 303.048492,286.570129 
	C316.769714,254.453766 319.096069,220.891052 313.865631,185.747543 
z"/>
<path fill="#ffffff" opacity="1.000000" stroke="none" 
	d="
M743.000000,97.750000 
	C740.378113,96.104591 740.355225,98.758087 739.741150,99.979965 
	C732.585693,114.217186 725.471069,128.475037 718.376831,142.742905 
	C685.935181,207.988708 653.480347,273.227997 621.150146,338.528961 
	C619.819275,341.217010 619.095886,344.499146 619.089966,347.506470 
	C618.972839,407.166107 619.009033,466.826019 618.999451,526.485901 
	C618.997498,538.881653 620.342834,551.018799 624.573303,562.805603 
	C631.238770,581.376953 650.254089,595.667358 669.825623,594.021729 
	C675.599854,593.536194 681.449463,593.946899 687.573853,593.946899 
	C687.573853,599.578369 687.573853,604.959717 687.573853,610.584717 
	C618.364929,610.584717 549.302612,610.584717 480.032837,610.584717 
	C480.032837,605.072021 480.032837,599.798401 480.032837,593.946899 
	C485.457520,593.946899 490.919373,593.608215 496.326996,594.006348 
	C518.087097,595.608643 538.508301,581.761475 544.599731,557.465027 
	C547.192993,547.121338 547.500000,536.139771 548.197754,525.406006 
	C548.747864,516.943054 548.303711,508.415527 548.303650,499.916687 
	C548.303406,453.755280 548.340759,407.593781 548.214539,361.432709 
	C548.206726,358.593262 547.433105,355.489655 546.137573,352.958405 
	C495.465546,253.953644 444.650116,155.022308 393.970856,56.021263 
	C385.444092,39.364380 375.865051,23.532558 359.066620,14.094098 
	C350.757263,9.425369 341.461548,6.513238 332.618073,2.792142 
	C331.881622,2.482264 331.190857,2.063820 330.739441,1.347908 
	C393.020905,1.000000 455.041779,1.000000 517.820068,1.344285 
	C515.762756,2.475044 512.956177,3.291842 510.132202,4.043200 
	C487.486359,10.068491 476.683746,24.978441 480.135803,48.000423 
	C481.584259,57.660229 485.146179,67.352631 489.486725,76.174324 
	C526.268494,150.929199 563.450989,225.486954 600.526062,300.097443 
	C601.054688,301.161224 601.749817,302.142212 602.565796,303.489777 
	C603.501038,301.701569 604.213745,300.394348 604.877014,299.062500 
	C633.510742,241.565781 662.215576,184.104263 690.723511,126.545265 
	C699.187378,109.456268 707.528137,92.279358 715.099976,74.785530 
	C719.756714,64.026733 721.328186,52.328144 720.311340,40.528984 
	C718.459839,19.044151 705.845276,6.024665 684.347168,2.932064 
	C682.836670,2.714778 681.446228,1.663493 680.000000,1.000013 
	C700.941345,1.000000 721.882629,1.000000 743.000000,1.000000 
	C743.000000,32.020672 743.000000,63.041679 742.575256,94.621742 
	C742.042786,95.825188 741.935059,96.469574 741.827271,97.113960 
	C742.218201,97.075974 742.609070,97.037987 743.000000,97.000000 
	C743.000000,97.000000 743.000000,97.500000 743.000000,97.750000 
z"/>
<path fill="#000000" opacity="1.000000" stroke="none" 
	d="
M679.531372,1.000013 
	C681.446228,1.663493 682.836670,2.714778 684.347168,2.932064 
	C705.845276,6.024665 718.459839,19.044151 720.311340,40.528984 
	C721.328186,52.328144 719.756714,64.026733 715.099976,74.785530 
	C707.528137,92.279358 699.187378,109.456268 690.723511,126.545265 
	C662.215576,184.104263 633.510742,241.565781 604.877014,299.062500 
	C604.213745,300.394348 603.501038,301.701569 602.565796,303.489777 
	C601.749817,302.142212 601.054688,301.161224 600.526062,300.097443 
	C563.450989,225.486954 526.268494,150.929199 489.486725,76.174324 
	C485.146179,67.352631 481.584259,57.660229 480.135803,48.000423 
	C476.683746,24.978441 487.486359,10.068491 510.132202,4.043200 
	C512.956177,3.291842 515.762756,2.475044 518.288696,1.344285 
	C571.687561,1.000000 625.375122,1.000000 679.531372,1.000013 
z"/>
<path fill="#000000" opacity="1.000000" stroke="none" 
	d="
M1.000000,53.468658 
	C9.957326,53.562054 19.039167,53.372643 27.847780,54.832203 
	C50.913136,58.654060 63.439480,70.453163 67.744896,93.413757 
	C70.124214,106.102577 71.345619,119.196571 71.366905,132.110764 
	C71.609741,279.416931 71.527313,426.723694 71.507217,574.030273 
	C71.505547,586.239075 70.408020,598.300232 66.062592,609.870789 
	C60.440685,624.840149 50.141541,634.931641 34.946896,640.007751 
	C34.057774,640.304749 33.267876,640.898865 32.715904,641.677368 
	C22.340853,642.000000 11.681705,642.000000 1.000000,642.000000 
	C1.000000,445.979095 1.000000,249.958206 1.000000,53.468658 
z"/>
<path fill="#000000" opacity="1.000000" stroke="none" 
	d="
M743.000000,96.666672 
	C742.609070,97.037987 742.218201,97.075974 741.827271,97.113960 
	C741.935059,96.469574 742.042786,95.825188 742.575256,95.090401 
	C743.000000,95.444443 743.000000,95.888893 743.000000,96.666672 
z"/>
<path fill="#000000" opacity="1.000000" stroke="none" 
	d="
M313.917877,186.180328 
	C319.096069,220.891052 316.769714,254.453766 303.048492,286.570129 
	C286.870819,324.436249 257.334381,344.116913 216.802109,348.131653 
	C194.962967,350.294830 173.613174,347.291840 152.446960,342.151642 
	C150.084229,341.577820 148.713531,340.998810 148.716293,338.056183 
	C148.796097,253.064850 148.776550,168.073425 148.787109,83.082024 
	C148.787170,82.605530 148.986038,82.129066 149.168915,81.307236 
	C175.667801,74.877487 202.391251,71.194046 229.563736,77.177422 
	C263.915131,84.741585 286.058533,106.663795 299.928101,137.993713 
	C306.694824,153.279053 310.989227,169.313019 313.917877,186.180328 
z"/>
</svg>